ISO-10303-21;
HEADER;
/* Generated by software containing ST-Developer
 * from STEP Tools, Inc. (www.steptools.com) 
 */
/* OPTION: using custom renumber hook */

FILE_DESCRIPTION(
/* description */ ('STEP AP242 Edition 2',
'CAx-IF Rec.Pracs.---Representation and Presentation of Product Manufa
cturing Information (PMI)---4.0---2014-10-13',
'CAx-IF Rec.Pracs.---3D Tessellated Geometry---0.4---2014-09-14','2;1',
'CAx-IF Rec.Pracs.---User Defined Attributes---1.5---2016-08-15'),
/* implementation_level */ '2;1');

FILE_NAME(
/* name */ 'BoxTemplate-ScrewedTop - Cover',
/* time_stamp */ '2026-06-08T23:24:28Z',
/* author */ (''),
/* organization */ (''),
/* preprocessor_version */ 'ST-DEVELOPER v20',
/* originating_system */ 'ONSHAPE BY PTC INC, 1.216',
/* authorisation */ '  ');

FILE_SCHEMA (('AP242_MANAGED_MODEL_BASED_3D_ENGINEERING_MIM_LF { 1 0 10303 442 3 1 4 }'));
ENDSEC;

DATA;
#10=SHAPE_REPRESENTATION_RELATIONSHIP('','',#437,#11);
#11=ADVANCED_BREP_SHAPE_REPRESENTATION('',(#435),#735);
#12=CYLINDRICAL_SURFACE('',#449,0.0022);
#13=CYLINDRICAL_SURFACE('',#451,0.0022);
#14=CYLINDRICAL_SURFACE('',#454,0.0022);
#15=CYLINDRICAL_SURFACE('',#457,0.0022);
#16=CYLINDRICAL_SURFACE('',#466,0.004);
#17=CYLINDRICAL_SURFACE('',#469,0.004);
#18=CYLINDRICAL_SURFACE('',#472,0.004);
#19=CYLINDRICAL_SURFACE('',#475,0.004);
#20=CYLINDRICAL_SURFACE('',#482,0.00175);
#21=CYLINDRICAL_SURFACE('',#483,0.00175);
#22=CYLINDRICAL_SURFACE('',#484,0.00175);
#23=CYLINDRICAL_SURFACE('',#485,0.00175);
#24=LINE('',#627,#56);
#25=LINE('',#631,#57);
#26=LINE('',#635,#58);
#27=LINE('',#639,#59);
#28=LINE('',#641,#60);
#29=LINE('',#643,#61);
#30=LINE('',#645,#62);
#31=LINE('',#649,#63);
#32=LINE('',#651,#64);
#33=LINE('',#655,#65);
#34=LINE('',#657,#66);
#35=LINE('',#661,#67);
#36=LINE('',#663,#68);
#37=LINE('',#665,#69);
#38=LINE('',#669,#70);
#39=LINE('',#671,#71);
#40=LINE('',#673,#72);
#41=LINE('',#678,#73);
#42=LINE('',#682,#74);
#43=LINE('',#686,#75);
#44=LINE('',#690,#76);
#45=LINE('',#692,#77);
#46=LINE('',#694,#78);
#47=LINE('',#696,#79);
#48=LINE('',#700,#80);
#49=LINE('',#702,#81);
#50=LINE('',#704,#82);
#51=LINE('',#708,#83);
#52=LINE('',#710,#84);
#53=LINE('',#712,#85);
#54=LINE('',#716,#86);
#55=LINE('',#718,#87);
#56=VECTOR('',#500,1.);
#57=VECTOR('',#503,1.);
#58=VECTOR('',#506,1.);
#59=VECTOR('',#509,1.);
#60=VECTOR('',#512,1.);
#61=VECTOR('',#513,1.);
#62=VECTOR('',#514,1.);
#63=VECTOR('',#519,1.);
#64=VECTOR('',#522,1.);
#65=VECTOR('',#527,1.);
#66=VECTOR('',#528,1.);
#67=VECTOR('',#533,1.);
#68=VECTOR('',#536,1.);
#69=VECTOR('',#537,1.);
#70=VECTOR('',#542,1.);
#71=VECTOR('',#545,1.);
#72=VECTOR('',#548,1.);
#73=VECTOR('',#551,1.);
#74=VECTOR('',#554,1.);
#75=VECTOR('',#557,1.);
#76=VECTOR('',#562,1.);
#77=VECTOR('',#563,1.);
#78=VECTOR('',#564,1.);
#79=VECTOR('',#567,1.);
#80=VECTOR('',#572,1.);
#81=VECTOR('',#573,1.);
#82=VECTOR('',#576,1.);
#83=VECTOR('',#581,1.);
#84=VECTOR('',#582,1.);
#85=VECTOR('',#585,1.);
#86=VECTOR('',#590,1.);
#87=VECTOR('',#591,1.);
#88=ORIENTED_EDGE('',*,*,#200,.F.);
#89=ORIENTED_EDGE('',*,*,#201,.F.);
#90=ORIENTED_EDGE('',*,*,#202,.F.);
#91=ORIENTED_EDGE('',*,*,#203,.F.);
#92=ORIENTED_EDGE('',*,*,#204,.T.);
#93=ORIENTED_EDGE('',*,*,#205,.F.);
#94=ORIENTED_EDGE('',*,*,#206,.T.);
#95=ORIENTED_EDGE('',*,*,#207,.T.);
#96=ORIENTED_EDGE('',*,*,#208,.T.);
#97=ORIENTED_EDGE('',*,*,#209,.F.);
#98=ORIENTED_EDGE('',*,*,#210,.T.);
#99=ORIENTED_EDGE('',*,*,#211,.T.);
#100=ORIENTED_EDGE('',*,*,#212,.F.);
#101=ORIENTED_EDGE('',*,*,#205,.T.);
#102=ORIENTED_EDGE('',*,*,#213,.T.);
#103=ORIENTED_EDGE('',*,*,#214,.T.);
#104=ORIENTED_EDGE('',*,*,#206,.F.);
#105=ORIENTED_EDGE('',*,*,#212,.T.);
#106=ORIENTED_EDGE('',*,*,#215,.F.);
#107=ORIENTED_EDGE('',*,*,#216,.F.);
#108=ORIENTED_EDGE('',*,*,#204,.F.);
#109=ORIENTED_EDGE('',*,*,#217,.T.);
#110=ORIENTED_EDGE('',*,*,#218,.F.);
#111=ORIENTED_EDGE('',*,*,#213,.F.);
#112=ORIENTED_EDGE('',*,*,#207,.F.);
#113=ORIENTED_EDGE('',*,*,#216,.T.);
#114=ORIENTED_EDGE('',*,*,#219,.F.);
#115=ORIENTED_EDGE('',*,*,#220,.F.);
#116=ORIENTED_EDGE('',*,*,#208,.F.);
#117=ORIENTED_EDGE('',*,*,#220,.T.);
#118=ORIENTED_EDGE('',*,*,#221,.F.);
#119=ORIENTED_EDGE('',*,*,#222,.F.);
#120=ORIENTED_EDGE('',*,*,#223,.F.);
#121=ORIENTED_EDGE('',*,*,#209,.T.);
#122=ORIENTED_EDGE('',*,*,#222,.T.);
#123=ORIENTED_EDGE('',*,*,#224,.T.);
#124=ORIENTED_EDGE('',*,*,#210,.F.);
#125=ORIENTED_EDGE('',*,*,#223,.T.);
#126=ORIENTED_EDGE('',*,*,#225,.F.);
#127=ORIENTED_EDGE('',*,*,#226,.F.);
#128=ORIENTED_EDGE('',*,*,#211,.F.);
#129=ORIENTED_EDGE('',*,*,#226,.T.);
#130=ORIENTED_EDGE('',*,*,#227,.F.);
#131=ORIENTED_EDGE('',*,*,#217,.F.);
#132=ORIENTED_EDGE('',*,*,#228,.T.);
#133=ORIENTED_EDGE('',*,*,#229,.F.);
#134=ORIENTED_EDGE('',*,*,#230,.T.);
#135=ORIENTED_EDGE('',*,*,#231,.F.);
#136=ORIENTED_EDGE('',*,*,#232,.F.);
#137=ORIENTED_EDGE('',*,*,#233,.F.);
#138=ORIENTED_EDGE('',*,*,#234,.T.);
#139=ORIENTED_EDGE('',*,*,#235,.F.);
#140=ORIENTED_EDGE('',*,*,#214,.F.);
#141=ORIENTED_EDGE('',*,*,#218,.T.);
#142=ORIENTED_EDGE('',*,*,#227,.T.);
#143=ORIENTED_EDGE('',*,*,#225,.T.);
#144=ORIENTED_EDGE('',*,*,#224,.F.);
#145=ORIENTED_EDGE('',*,*,#221,.T.);
#146=ORIENTED_EDGE('',*,*,#219,.T.);
#147=ORIENTED_EDGE('',*,*,#215,.T.);
#148=ORIENTED_EDGE('',*,*,#228,.F.);
#149=ORIENTED_EDGE('',*,*,#236,.F.);
#150=ORIENTED_EDGE('',*,*,#237,.T.);
#151=ORIENTED_EDGE('',*,*,#238,.T.);
#152=ORIENTED_EDGE('',*,*,#235,.T.);
#153=ORIENTED_EDGE('',*,*,#239,.F.);
#154=ORIENTED_EDGE('',*,*,#240,.F.);
#155=ORIENTED_EDGE('',*,*,#236,.T.);
#156=ORIENTED_EDGE('',*,*,#234,.F.);
#157=ORIENTED_EDGE('',*,*,#241,.F.);
#158=ORIENTED_EDGE('',*,*,#242,.T.);
#159=ORIENTED_EDGE('',*,*,#239,.T.);
#160=ORIENTED_EDGE('',*,*,#233,.T.);
#161=ORIENTED_EDGE('',*,*,#243,.F.);
#162=ORIENTED_EDGE('',*,*,#244,.F.);
#163=ORIENTED_EDGE('',*,*,#241,.T.);
#164=ORIENTED_EDGE('',*,*,#232,.T.);
#165=ORIENTED_EDGE('',*,*,#245,.F.);
#166=ORIENTED_EDGE('',*,*,#246,.F.);
#167=ORIENTED_EDGE('',*,*,#243,.T.);
#168=ORIENTED_EDGE('',*,*,#231,.T.);
#169=ORIENTED_EDGE('',*,*,#247,.F.);
#170=ORIENTED_EDGE('',*,*,#248,.F.);
#171=ORIENTED_EDGE('',*,*,#245,.T.);
#172=ORIENTED_EDGE('',*,*,#230,.F.);
#173=ORIENTED_EDGE('',*,*,#249,.F.);
#174=ORIENTED_EDGE('',*,*,#250,.T.);
#175=ORIENTED_EDGE('',*,*,#247,.T.);
#176=ORIENTED_EDGE('',*,*,#229,.T.);
#177=ORIENTED_EDGE('',*,*,#238,.F.);
#178=ORIENTED_EDGE('',*,*,#251,.F.);
#179=ORIENTED_EDGE('',*,*,#249,.T.);
#180=ORIENTED_EDGE('',*,*,#252,.F.);
#181=ORIENTED_EDGE('',*,*,#253,.F.);
#182=ORIENTED_EDGE('',*,*,#254,.F.);
#183=ORIENTED_EDGE('',*,*,#255,.F.);
#184=ORIENTED_EDGE('',*,*,#237,.F.);
#185=ORIENTED_EDGE('',*,*,#240,.T.);
#186=ORIENTED_EDGE('',*,*,#242,.F.);
#187=ORIENTED_EDGE('',*,*,#244,.T.);
#188=ORIENTED_EDGE('',*,*,#246,.T.);
#189=ORIENTED_EDGE('',*,*,#248,.T.);
#190=ORIENTED_EDGE('',*,*,#250,.F.);
#191=ORIENTED_EDGE('',*,*,#251,.T.);
#192=ORIENTED_EDGE('',*,*,#203,.T.);
#193=ORIENTED_EDGE('',*,*,#255,.T.);
#194=ORIENTED_EDGE('',*,*,#202,.T.);
#195=ORIENTED_EDGE('',*,*,#254,.T.);
#196=ORIENTED_EDGE('',*,*,#201,.T.);
#197=ORIENTED_EDGE('',*,*,#253,.T.);
#198=ORIENTED_EDGE('',*,*,#200,.T.);
#199=ORIENTED_EDGE('',*,*,#252,.T.);
#200=EDGE_CURVE('',#256,#256,#296,.F.);
#201=EDGE_CURVE('',#257,#257,#297,.F.);
#202=EDGE_CURVE('',#258,#258,#298,.F.);
#203=EDGE_CURVE('',#259,#259,#299,.F.);
#204=EDGE_CURVE('',#260,#261,#300,.F.);
#205=EDGE_CURVE('',#262,#261,#24,.T.);
#206=EDGE_CURVE('',#262,#263,#301,.F.);
#207=EDGE_CURVE('',#263,#264,#25,.T.);
#208=EDGE_CURVE('',#264,#265,#302,.F.);
#209=EDGE_CURVE('',#266,#265,#26,.T.);
#210=EDGE_CURVE('',#266,#267,#303,.F.);
#211=EDGE_CURVE('',#267,#260,#27,.T.);
#212=EDGE_CURVE('',#262,#268,#28,.T.);
#213=EDGE_CURVE('',#261,#269,#29,.T.);
#214=EDGE_CURVE('',#269,#268,#30,.T.);
#215=EDGE_CURVE('',#270,#268,#304,.T.);
#216=EDGE_CURVE('',#263,#270,#31,.T.);
#217=EDGE_CURVE('',#260,#271,#32,.T.);
#218=EDGE_CURVE('',#269,#271,#305,.T.);
#219=EDGE_CURVE('',#272,#270,#33,.T.);
#220=EDGE_CURVE('',#264,#272,#34,.T.);
#221=EDGE_CURVE('',#273,#272,#306,.T.);
#222=EDGE_CURVE('',#265,#273,#35,.T.);
#223=EDGE_CURVE('',#266,#274,#36,.T.);
#224=EDGE_CURVE('',#273,#274,#37,.T.);
#225=EDGE_CURVE('',#275,#274,#307,.T.);
#226=EDGE_CURVE('',#267,#275,#38,.T.);
#227=EDGE_CURVE('',#271,#275,#39,.T.);
#228=EDGE_CURVE('',#276,#277,#40,.T.);
#229=EDGE_CURVE('',#278,#277,#308,.T.);
#230=EDGE_CURVE('',#278,#279,#41,.T.);
#231=EDGE_CURVE('',#280,#279,#309,.T.);
#232=EDGE_CURVE('',#281,#280,#42,.T.);
#233=EDGE_CURVE('',#282,#281,#310,.T.);
#234=EDGE_CURVE('',#282,#283,#43,.T.);
#235=EDGE_CURVE('',#276,#283,#311,.T.);
#236=EDGE_CURVE('',#284,#276,#44,.T.);
#237=EDGE_CURVE('',#284,#285,#45,.T.);
#238=EDGE_CURVE('',#285,#277,#46,.T.);
#239=EDGE_CURVE('',#286,#283,#47,.T.);
#240=EDGE_CURVE('',#284,#286,#312,.T.);
#241=EDGE_CURVE('',#287,#282,#48,.T.);
#242=EDGE_CURVE('',#287,#286,#49,.T.);
#243=EDGE_CURVE('',#288,#281,#50,.T.);
#244=EDGE_CURVE('',#287,#288,#313,.T.);
#245=EDGE_CURVE('',#289,#280,#51,.T.);
#246=EDGE_CURVE('',#288,#289,#52,.T.);
#247=EDGE_CURVE('',#290,#279,#53,.T.);
#248=EDGE_CURVE('',#289,#290,#314,.T.);
#249=EDGE_CURVE('',#291,#278,#54,.T.);
#250=EDGE_CURVE('',#291,#290,#55,.T.);
#251=EDGE_CURVE('',#291,#285,#315,.T.);
#252=EDGE_CURVE('',#292,#292,#316,.T.);
#253=EDGE_CURVE('',#293,#293,#317,.T.);
#254=EDGE_CURVE('',#294,#294,#318,.T.);
#255=EDGE_CURVE('',#295,#295,#319,.T.);
#256=VERTEX_POINT('',#617);
#257=VERTEX_POINT('',#619);
#258=VERTEX_POINT('',#621);
#259=VERTEX_POINT('',#623);
#260=VERTEX_POINT('',#625);
#261=VERTEX_POINT('',#626);
#262=VERTEX_POINT('',#628);
#263=VERTEX_POINT('',#630);
#264=VERTEX_POINT('',#632);
#265=VERTEX_POINT('',#634);
#266=VERTEX_POINT('',#636);
#267=VERTEX_POINT('',#638);
#268=VERTEX_POINT('',#642);
#269=VERTEX_POINT('',#644);
#270=VERTEX_POINT('',#648);
#271=VERTEX_POINT('',#652);
#272=VERTEX_POINT('',#656);
#273=VERTEX_POINT('',#660);
#274=VERTEX_POINT('',#664);
#275=VERTEX_POINT('',#668);
#276=VERTEX_POINT('',#674);
#277=VERTEX_POINT('',#675);
#278=VERTEX_POINT('',#677);
#279=VERTEX_POINT('',#679);
#280=VERTEX_POINT('',#681);
#281=VERTEX_POINT('',#683);
#282=VERTEX_POINT('',#685);
#283=VERTEX_POINT('',#687);
#284=VERTEX_POINT('',#691);
#285=VERTEX_POINT('',#693);
#286=VERTEX_POINT('',#697);
#287=VERTEX_POINT('',#701);
#288=VERTEX_POINT('',#705);
#289=VERTEX_POINT('',#709);
#290=VERTEX_POINT('',#713);
#291=VERTEX_POINT('',#717);
#292=VERTEX_POINT('',#723);
#293=VERTEX_POINT('',#725);
#294=VERTEX_POINT('',#727);
#295=VERTEX_POINT('',#729);
#296=CIRCLE('',#440,0.00175);
#297=CIRCLE('',#441,0.00175);
#298=CIRCLE('',#442,0.00175);
#299=CIRCLE('',#443,0.00175);
#300=CIRCLE('',#444,0.0022);
#301=CIRCLE('',#445,0.0022);
#302=CIRCLE('',#446,0.0022);
#303=CIRCLE('',#447,0.0022);
#304=CIRCLE('',#450,0.0022);
#305=CIRCLE('',#452,0.0022);
#306=CIRCLE('',#455,0.0022);
#307=CIRCLE('',#458,0.0022);
#308=CIRCLE('',#461,0.004);
#309=CIRCLE('',#462,0.004);
#310=CIRCLE('',#463,0.004);
#311=CIRCLE('',#464,0.004);
#312=CIRCLE('',#467,0.004);
#313=CIRCLE('',#470,0.004);
#314=CIRCLE('',#473,0.004);
#315=CIRCLE('',#476,0.004);
#316=CIRCLE('',#478,0.00175);
#317=CIRCLE('',#479,0.00175);
#318=CIRCLE('',#480,0.00175);
#319=CIRCLE('',#481,0.00175);
#320=EDGE_LOOP('',(#88));
#321=EDGE_LOOP('',(#89));
#322=EDGE_LOOP('',(#90));
#323=EDGE_LOOP('',(#91));
#324=EDGE_LOOP('',(#92,#93,#94,#95,#96,#97,#98,#99));
#325=EDGE_LOOP('',(#100,#101,#102,#103));
#326=EDGE_LOOP('',(#104,#105,#106,#107));
#327=EDGE_LOOP('',(#108,#109,#110,#111));
#328=EDGE_LOOP('',(#112,#113,#114,#115));
#329=EDGE_LOOP('',(#116,#117,#118,#119));
#330=EDGE_LOOP('',(#120,#121,#122,#123));
#331=EDGE_LOOP('',(#124,#125,#126,#127));
#332=EDGE_LOOP('',(#128,#129,#130,#131));
#333=EDGE_LOOP('',(#132,#133,#134,#135,#136,#137,#138,#139));
#334=EDGE_LOOP('',(#140,#141,#142,#143,#144,#145,#146,#147));
#335=EDGE_LOOP('',(#148,#149,#150,#151));
#336=EDGE_LOOP('',(#152,#153,#154,#155));
#337=EDGE_LOOP('',(#156,#157,#158,#159));
#338=EDGE_LOOP('',(#160,#161,#162,#163));
#339=EDGE_LOOP('',(#164,#165,#166,#167));
#340=EDGE_LOOP('',(#168,#169,#170,#171));
#341=EDGE_LOOP('',(#172,#173,#174,#175));
#342=EDGE_LOOP('',(#176,#177,#178,#179));
#343=EDGE_LOOP('',(#180));
#344=EDGE_LOOP('',(#181));
#345=EDGE_LOOP('',(#182));
#346=EDGE_LOOP('',(#183));
#347=EDGE_LOOP('',(#184,#185,#186,#187,#188,#189,#190,#191));
#348=EDGE_LOOP('',(#192));
#349=EDGE_LOOP('',(#193));
#350=EDGE_LOOP('',(#194));
#351=EDGE_LOOP('',(#195));
#352=EDGE_LOOP('',(#196));
#353=EDGE_LOOP('',(#197));
#354=EDGE_LOOP('',(#198));
#355=EDGE_LOOP('',(#199));
#356=FACE_BOUND('',#320,.T.);
#357=FACE_BOUND('',#321,.T.);
#358=FACE_BOUND('',#322,.T.);
#359=FACE_BOUND('',#323,.T.);
#360=FACE_BOUND('',#324,.T.);
#361=FACE_BOUND('',#325,.T.);
#362=FACE_BOUND('',#326,.T.);
#363=FACE_BOUND('',#327,.T.);
#364=FACE_BOUND('',#328,.T.);
#365=FACE_BOUND('',#329,.T.);
#366=FACE_BOUND('',#330,.T.);
#367=FACE_BOUND('',#331,.T.);
#368=FACE_BOUND('',#332,.T.);
#369=FACE_BOUND('',#333,.T.);
#370=FACE_BOUND('',#334,.T.);
#371=FACE_BOUND('',#335,.T.);
#372=FACE_BOUND('',#336,.T.);
#373=FACE_BOUND('',#337,.T.);
#374=FACE_BOUND('',#338,.T.);
#375=FACE_BOUND('',#339,.T.);
#376=FACE_BOUND('',#340,.T.);
#377=FACE_BOUND('',#341,.T.);
#378=FACE_BOUND('',#342,.T.);
#379=FACE_BOUND('',#343,.T.);
#380=FACE_BOUND('',#344,.T.);
#381=FACE_BOUND('',#345,.T.);
#382=FACE_BOUND('',#346,.T.);
#383=FACE_BOUND('',#347,.T.);
#384=FACE_BOUND('',#348,.T.);
#385=FACE_BOUND('',#349,.T.);
#386=FACE_BOUND('',#350,.T.);
#387=FACE_BOUND('',#351,.T.);
#388=FACE_BOUND('',#352,.T.);
#389=FACE_BOUND('',#353,.T.);
#390=FACE_BOUND('',#354,.T.);
#391=FACE_BOUND('',#355,.T.);
#392=PLANE('',#439);
#393=PLANE('',#448);
#394=PLANE('',#453);
#395=PLANE('',#456);
#396=PLANE('',#459);
#397=PLANE('',#460);
#398=PLANE('',#465);
#399=PLANE('',#468);
#400=PLANE('',#471);
#401=PLANE('',#474);
#402=PLANE('',#477);
#403=ADVANCED_FACE('',(#356,#357,#358,#359,#360),#392,.F.);
#404=ADVANCED_FACE('',(#361),#393,.F.);
#405=ADVANCED_FACE('',(#362),#12,.T.);
#406=ADVANCED_FACE('',(#363),#13,.T.);
#407=ADVANCED_FACE('',(#364),#394,.T.);
#408=ADVANCED_FACE('',(#365),#14,.T.);
#409=ADVANCED_FACE('',(#366),#395,.F.);
#410=ADVANCED_FACE('',(#367),#15,.T.);
#411=ADVANCED_FACE('',(#368),#396,.T.);
#412=ADVANCED_FACE('',(#369,#370),#397,.F.);
#413=ADVANCED_FACE('',(#371),#398,.T.);
#414=ADVANCED_FACE('',(#372),#16,.T.);
#415=ADVANCED_FACE('',(#373),#399,.T.);
#416=ADVANCED_FACE('',(#374),#17,.T.);
#417=ADVANCED_FACE('',(#375),#400,.F.);
#418=ADVANCED_FACE('',(#376),#18,.T.);
#419=ADVANCED_FACE('',(#377),#401,.T.);
#420=ADVANCED_FACE('',(#378),#19,.T.);
#421=ADVANCED_FACE('',(#379,#380,#381,#382,#383),#402,.T.);
#422=ADVANCED_FACE('',(#384,#385),#20,.F.);
#423=ADVANCED_FACE('',(#386,#387),#21,.F.);
#424=ADVANCED_FACE('',(#388,#389),#22,.F.);
#425=ADVANCED_FACE('',(#390,#391),#23,.F.);
#426=CLOSED_SHELL('',(#403,#404,#405,#406,#407,#408,#409,#410,#411,#412,
#413,#414,#415,#416,#417,#418,#419,#420,#421,#422,#423,#424,#425));
#427=STYLED_ITEM('',(#428),#435);
#428=PRESENTATION_STYLE_ASSIGNMENT((#429));
#429=SURFACE_STYLE_USAGE(.BOTH.,#430);
#430=SURFACE_SIDE_STYLE('',(#431));
#431=SURFACE_STYLE_FILL_AREA(#432);
#432=FILL_AREA_STYLE('',(#433));
#433=FILL_AREA_STYLE_COLOUR('',#434);
#434=COLOUR_RGB('',0.890196078431373,0.698039215686275,0.63921568627451);
#435=MANIFOLD_SOLID_BREP('Cover',#426);
#436=SHAPE_DEFINITION_REPRESENTATION(#740,#437);
#437=SHAPE_REPRESENTATION('Cover',(#438),#735);
#438=AXIS2_PLACEMENT_3D('',#614,#486,#487);
#439=AXIS2_PLACEMENT_3D('',#615,#488,#489);
#440=AXIS2_PLACEMENT_3D('',#616,#490,#491);
#441=AXIS2_PLACEMENT_3D('',#618,#492,#493);
#442=AXIS2_PLACEMENT_3D('',#620,#494,#495);
#443=AXIS2_PLACEMENT_3D('',#622,#496,#497);
#444=AXIS2_PLACEMENT_3D('',#624,#498,#499);
#445=AXIS2_PLACEMENT_3D('',#629,#501,#502);
#446=AXIS2_PLACEMENT_3D('',#633,#504,#505);
#447=AXIS2_PLACEMENT_3D('',#637,#507,#508);
#448=AXIS2_PLACEMENT_3D('',#640,#510,#511);
#449=AXIS2_PLACEMENT_3D('',#646,#515,#516);
#450=AXIS2_PLACEMENT_3D('',#647,#517,#518);
#451=AXIS2_PLACEMENT_3D('',#650,#520,#521);
#452=AXIS2_PLACEMENT_3D('',#653,#523,#524);
#453=AXIS2_PLACEMENT_3D('',#654,#525,#526);
#454=AXIS2_PLACEMENT_3D('',#658,#529,#530);
#455=AXIS2_PLACEMENT_3D('',#659,#531,#532);
#456=AXIS2_PLACEMENT_3D('',#662,#534,#535);
#457=AXIS2_PLACEMENT_3D('',#666,#538,#539);
#458=AXIS2_PLACEMENT_3D('',#667,#540,#541);
#459=AXIS2_PLACEMENT_3D('',#670,#543,#544);
#460=AXIS2_PLACEMENT_3D('',#672,#546,#547);
#461=AXIS2_PLACEMENT_3D('',#676,#549,#550);
#462=AXIS2_PLACEMENT_3D('',#680,#552,#553);
#463=AXIS2_PLACEMENT_3D('',#684,#555,#556);
#464=AXIS2_PLACEMENT_3D('',#688,#558,#559);
#465=AXIS2_PLACEMENT_3D('',#689,#560,#561);
#466=AXIS2_PLACEMENT_3D('',#695,#565,#566);
#467=AXIS2_PLACEMENT_3D('',#698,#568,#569);
#468=AXIS2_PLACEMENT_3D('',#699,#570,#571);
#469=AXIS2_PLACEMENT_3D('',#703,#574,#575);
#470=AXIS2_PLACEMENT_3D('',#706,#577,#578);
#471=AXIS2_PLACEMENT_3D('',#707,#579,#580);
#472=AXIS2_PLACEMENT_3D('',#711,#583,#584);
#473=AXIS2_PLACEMENT_3D('',#714,#586,#587);
#474=AXIS2_PLACEMENT_3D('',#715,#588,#589);
#475=AXIS2_PLACEMENT_3D('',#719,#592,#593);
#476=AXIS2_PLACEMENT_3D('',#720,#594,#595);
#477=AXIS2_PLACEMENT_3D('',#721,#596,#597);
#478=AXIS2_PLACEMENT_3D('',#722,#598,#599);
#479=AXIS2_PLACEMENT_3D('',#724,#600,#601);
#480=AXIS2_PLACEMENT_3D('',#726,#602,#603);
#481=AXIS2_PLACEMENT_3D('',#728,#604,#605);
#482=AXIS2_PLACEMENT_3D('',#730,#606,#607);
#483=AXIS2_PLACEMENT_3D('',#731,#608,#609);
#484=AXIS2_PLACEMENT_3D('',#732,#610,#611);
#485=AXIS2_PLACEMENT_3D('',#733,#612,#613);
#486=DIRECTION('',(0.,0.,1.));
#487=DIRECTION('',(1.,0.,0.));
#488=DIRECTION('',(0.,0.,1.));
#489=DIRECTION('',(1.,0.,0.));
#490=DIRECTION('',(0.,0.,1.));
#491=DIRECTION('',(1.,0.,0.));
#492=DIRECTION('',(0.,0.,1.));
#493=DIRECTION('',(1.,0.,0.));
#494=DIRECTION('',(0.,0.,1.));
#495=DIRECTION('',(1.,0.,0.));
#496=DIRECTION('',(0.,0.,1.));
#497=DIRECTION('',(1.,0.,0.));
#498=DIRECTION('',(0.,0.,1.));
#499=DIRECTION('',(1.,0.,0.));
#500=DIRECTION('',(0.,1.,0.));
#501=DIRECTION('',(0.,0.,1.));
#502=DIRECTION('',(1.,0.,0.));
#503=DIRECTION('',(-1.,0.,0.));
#504=DIRECTION('',(0.,0.,1.));
#505=DIRECTION('',(1.,0.,0.));
#506=DIRECTION('',(0.,-1.,0.));
#507=DIRECTION('',(0.,0.,1.));
#508=DIRECTION('',(1.,0.,0.));
#509=DIRECTION('',(1.,0.,0.));
#510=DIRECTION('',(-1.,0.,0.));
#511=DIRECTION('',(0.,0.,1.));
#512=DIRECTION('',(0.,0.,1.));
#513=DIRECTION('',(0.,0.,1.));
#514=DIRECTION('',(0.,-1.,0.));
#515=DIRECTION('',(0.,0.,1.));
#516=DIRECTION('',(1.,0.,0.));
#517=DIRECTION('',(0.,0.,1.));
#518=DIRECTION('',(1.,0.,0.));
#519=DIRECTION('',(0.,0.,1.));
#520=DIRECTION('',(0.,0.,1.));
#521=DIRECTION('',(1.,0.,0.));
#522=DIRECTION('',(0.,0.,1.));
#523=DIRECTION('',(0.,0.,1.));
#524=DIRECTION('',(1.,0.,0.));
#525=DIRECTION('',(0.,-1.,0.));
#526=DIRECTION('',(0.,0.,-1.));
#527=DIRECTION('',(1.,0.,0.));
#528=DIRECTION('',(0.,0.,1.));
#529=DIRECTION('',(0.,0.,1.));
#530=DIRECTION('',(1.,0.,0.));
#531=DIRECTION('',(0.,0.,1.));
#532=DIRECTION('',(1.,0.,0.));
#533=DIRECTION('',(0.,0.,1.));
#534=DIRECTION('',(1.,0.,0.));
#535=DIRECTION('',(0.,0.,-1.));
#536=DIRECTION('',(0.,0.,1.));
#537=DIRECTION('',(0.,1.,0.));
#538=DIRECTION('',(0.,0.,1.));
#539=DIRECTION('',(1.,0.,0.));
#540=DIRECTION('',(0.,0.,1.));
#541=DIRECTION('',(1.,0.,0.));
#542=DIRECTION('',(0.,0.,1.));
#543=DIRECTION('',(0.,1.,0.));
#544=DIRECTION('',(0.,0.,1.));
#545=DIRECTION('',(-1.,0.,0.));
#546=DIRECTION('',(0.,0.,1.));
#547=DIRECTION('',(1.,0.,0.));
#548=DIRECTION('',(0.,1.,0.));
#549=DIRECTION('',(0.,0.,1.));
#550=DIRECTION('',(1.,0.,0.));
#551=DIRECTION('',(1.,0.,0.));
#552=DIRECTION('',(0.,0.,1.));
#553=DIRECTION('',(1.,0.,0.));
#554=DIRECTION('',(0.,1.,0.));
#555=DIRECTION('',(0.,0.,1.));
#556=DIRECTION('',(1.,0.,0.));
#557=DIRECTION('',(-1.,1.98254111540206E-16,0.));
#558=DIRECTION('',(0.,0.,1.));
#559=DIRECTION('',(1.,0.,0.));
#560=DIRECTION('',(-1.,0.,0.));
#561=DIRECTION('',(0.,0.,1.));
#562=DIRECTION('',(0.,0.,-1.));
#563=DIRECTION('',(0.,1.,0.));
#564=DIRECTION('',(0.,0.,-1.));
#565=DIRECTION('',(0.,0.,-1.));
#566=DIRECTION('',(-1.,0.,0.));
#567=DIRECTION('',(0.,0.,-1.));
#568=DIRECTION('',(0.,0.,1.));
#569=DIRECTION('',(1.,0.,0.));
#570=DIRECTION('',(-1.98254111540206E-16,-1.,0.));
#571=DIRECTION('',(1.,-1.98254111540206E-16,0.));
#572=DIRECTION('',(0.,0.,-1.));
#573=DIRECTION('',(-1.,1.98254111540206E-16,0.));
#574=DIRECTION('',(0.,0.,-1.));
#575=DIRECTION('',(-1.,0.,0.));
#576=DIRECTION('',(0.,0.,-1.));
#577=DIRECTION('',(0.,0.,1.));
#578=DIRECTION('',(1.,0.,0.));
#579=DIRECTION('',(-1.,0.,0.));
#580=DIRECTION('',(0.,0.,1.));
#581=DIRECTION('',(0.,0.,-1.));
#582=DIRECTION('',(0.,1.,0.));
#583=DIRECTION('',(0.,0.,-1.));
#584=DIRECTION('',(-1.,0.,0.));
#585=DIRECTION('',(0.,0.,-1.));
#586=DIRECTION('',(0.,0.,1.));
#587=DIRECTION('',(1.,0.,0.));
#588=DIRECTION('',(0.,1.,0.));
#589=DIRECTION('',(0.,0.,1.));
#590=DIRECTION('',(0.,0.,-1.));
#591=DIRECTION('',(1.,0.,0.));
#592=DIRECTION('',(0.,0.,-1.));
#593=DIRECTION('',(-1.,0.,0.));
#594=DIRECTION('',(0.,0.,1.));
#595=DIRECTION('',(1.,0.,0.));
#596=DIRECTION('',(0.,0.,1.));
#597=DIRECTION('',(1.,0.,0.));
#598=DIRECTION('',(0.,0.,1.));
#599=DIRECTION('',(1.,0.,0.));
#600=DIRECTION('',(0.,0.,1.));
#601=DIRECTION('',(1.,0.,0.));
#602=DIRECTION('',(0.,0.,1.));
#603=DIRECTION('',(1.,0.,0.));
#604=DIRECTION('',(0.,0.,1.));
#605=DIRECTION('',(1.,0.,0.));
#606=DIRECTION('',(0.,0.,1.));
#607=DIRECTION('',(1.,0.,0.));
#608=DIRECTION('',(0.,0.,1.));
#609=DIRECTION('',(1.,0.,0.));
#610=DIRECTION('',(0.,0.,1.));
#611=DIRECTION('',(1.,0.,0.));
#612=DIRECTION('',(0.,0.,1.));
#613=DIRECTION('',(1.,0.,0.));
#614=CARTESIAN_POINT('',(0.,0.,0.));
#615=CARTESIAN_POINT('',(0.,0.,0.03));
#616=CARTESIAN_POINT('',(-0.0301,0.0391,0.03));
#617=CARTESIAN_POINT('',(-0.02835,0.0391,0.03));
#618=CARTESIAN_POINT('',(-0.0301,-0.0391,0.03));
#619=CARTESIAN_POINT('',(-0.02835,-0.0391,0.03));
#620=CARTESIAN_POINT('',(0.0301,-0.0391,0.03));
#621=CARTESIAN_POINT('',(0.03185,-0.0391,0.03));
#622=CARTESIAN_POINT('',(0.0301,0.0391,0.03));
#623=CARTESIAN_POINT('',(0.03185,0.0391,0.03));
#624=CARTESIAN_POINT('',(0.0312,0.0402,0.03));
#625=CARTESIAN_POINT('',(0.0312,0.0424,0.03));
#626=CARTESIAN_POINT('',(0.0334,0.0402,0.03));
#627=CARTESIAN_POINT('',(0.0334,0.,0.03));
#628=CARTESIAN_POINT('',(0.0334,-0.0402,0.03));
#629=CARTESIAN_POINT('',(0.0312,-0.0402,0.03));
#630=CARTESIAN_POINT('',(0.0312,-0.0424,0.03));
#631=CARTESIAN_POINT('',(0.,-0.0424,0.03));
#632=CARTESIAN_POINT('',(-0.0312,-0.0424,0.03));
#633=CARTESIAN_POINT('',(-0.0312,-0.0402,0.03));
#634=CARTESIAN_POINT('',(-0.0334,-0.0402,0.03));
#635=CARTESIAN_POINT('',(-0.0334,0.,0.03));
#636=CARTESIAN_POINT('',(-0.0334,0.0402,0.03));
#637=CARTESIAN_POINT('',(-0.0312,0.0402,0.03));
#638=CARTESIAN_POINT('',(-0.0312,0.0424,0.03));
#639=CARTESIAN_POINT('',(0.,0.0424,0.03));
#640=CARTESIAN_POINT('',(0.0334,0.,0.029998));
#641=CARTESIAN_POINT('',(0.0334,-0.0402,0.029998));
#642=CARTESIAN_POINT('',(0.0334,-0.0402,0.031));
#643=CARTESIAN_POINT('',(0.0334,0.0402,0.029998));
#644=CARTESIAN_POINT('',(0.0334,0.0402,0.031));
#645=CARTESIAN_POINT('',(0.0334,0.,0.031));
#646=CARTESIAN_POINT('',(0.0312,-0.0402,0.029998));
#647=CARTESIAN_POINT('',(0.0312,-0.0402,0.031));
#648=CARTESIAN_POINT('',(0.0312,-0.0424,0.031));
#649=CARTESIAN_POINT('',(0.0312,-0.0424,0.029998));
#650=CARTESIAN_POINT('',(0.0312,0.0402,0.029998));
#651=CARTESIAN_POINT('',(0.0312,0.0424,0.029998));
#652=CARTESIAN_POINT('',(0.0312,0.0424,0.031));
#653=CARTESIAN_POINT('',(0.0312,0.0402,0.031));
#654=CARTESIAN_POINT('',(0.,-0.0424,0.029998));
#655=CARTESIAN_POINT('',(0.,-0.0424,0.031));
#656=CARTESIAN_POINT('',(-0.0312,-0.0424,0.031));
#657=CARTESIAN_POINT('',(-0.0312,-0.0424,0.029998));
#658=CARTESIAN_POINT('',(-0.0312,-0.0402,0.029998));
#659=CARTESIAN_POINT('',(-0.0312,-0.0402,0.031));
#660=CARTESIAN_POINT('',(-0.0334,-0.0402,0.031));
#661=CARTESIAN_POINT('',(-0.0334,-0.0402,0.029998));
#662=CARTESIAN_POINT('',(-0.0334,0.,0.029998));
#663=CARTESIAN_POINT('',(-0.0334,0.0402,0.029998));
#664=CARTESIAN_POINT('',(-0.0334,0.0402,0.031));
#665=CARTESIAN_POINT('',(-0.0334,0.,0.031));
#666=CARTESIAN_POINT('',(-0.0312,0.0402,0.029998));
#667=CARTESIAN_POINT('',(-0.0312,0.0402,0.031));
#668=CARTESIAN_POINT('',(-0.0312,0.0424,0.031));
#669=CARTESIAN_POINT('',(-0.0312,0.0424,0.029998));
#670=CARTESIAN_POINT('',(0.,0.0424,0.029998));
#671=CARTESIAN_POINT('',(0.,0.0424,0.031));
#672=CARTESIAN_POINT('',(0.,6.93889390390723E-18,0.031));
#673=CARTESIAN_POINT('',(-0.035,-0.022,0.031));
#674=CARTESIAN_POINT('',(-0.035,-0.04,0.031));
#675=CARTESIAN_POINT('',(-0.035,0.04,0.031));
#676=CARTESIAN_POINT('',(-0.031,0.04,0.031));
#677=CARTESIAN_POINT('',(-0.031,0.044,0.031));
#678=CARTESIAN_POINT('',(0.0175,0.044,0.031));
#679=CARTESIAN_POINT('',(0.031,0.044,0.031));
#680=CARTESIAN_POINT('',(0.031,0.04,0.031));
#681=CARTESIAN_POINT('',(0.035,0.04,0.031));
#682=CARTESIAN_POINT('',(0.035,-0.022,0.031));
#683=CARTESIAN_POINT('',(0.035,-0.04,0.031));
#684=CARTESIAN_POINT('',(0.031,-0.04,0.031));
#685=CARTESIAN_POINT('',(0.031,-0.044,0.031));
#686=CARTESIAN_POINT('',(-0.0175,-0.044,0.031));
#687=CARTESIAN_POINT('',(-0.031,-0.044,0.031));
#688=CARTESIAN_POINT('',(-0.031,-0.04,0.031));
#689=CARTESIAN_POINT('',(-0.035,-0.022,0.033));
#690=CARTESIAN_POINT('',(-0.035,-0.04,0.033));
#691=CARTESIAN_POINT('',(-0.035,-0.04,0.033));
#692=CARTESIAN_POINT('',(-0.035,-0.022,0.033));
#693=CARTESIAN_POINT('',(-0.035,0.04,0.033));
#694=CARTESIAN_POINT('',(-0.035,0.04,0.033));
#695=CARTESIAN_POINT('',(-0.031,-0.04,0.033));
#696=CARTESIAN_POINT('',(-0.031,-0.044,0.033));
#697=CARTESIAN_POINT('',(-0.031,-0.044,0.033));
#698=CARTESIAN_POINT('',(-0.031,-0.04,0.033));
#699=CARTESIAN_POINT('',(-0.0175,-0.044,0.033));
#700=CARTESIAN_POINT('',(0.031,-0.044,0.033));
#701=CARTESIAN_POINT('',(0.031,-0.044,0.033));
#702=CARTESIAN_POINT('',(-0.0175,-0.044,0.033));
#703=CARTESIAN_POINT('',(0.031,-0.04,0.033));
#704=CARTESIAN_POINT('',(0.035,-0.04,0.033));
#705=CARTESIAN_POINT('',(0.035,-0.04,0.033));
#706=CARTESIAN_POINT('',(0.031,-0.04,0.033));
#707=CARTESIAN_POINT('',(0.035,-0.022,0.033));
#708=CARTESIAN_POINT('',(0.035,0.04,0.033));
#709=CARTESIAN_POINT('',(0.035,0.04,0.033));
#710=CARTESIAN_POINT('',(0.035,-0.022,0.033));
#711=CARTESIAN_POINT('',(0.031,0.04,0.033));
#712=CARTESIAN_POINT('',(0.031,0.044,0.033));
#713=CARTESIAN_POINT('',(0.031,0.044,0.033));
#714=CARTESIAN_POINT('',(0.031,0.04,0.033));
#715=CARTESIAN_POINT('',(0.0175,0.044,0.033));
#716=CARTESIAN_POINT('',(-0.031,0.044,0.033));
#717=CARTESIAN_POINT('',(-0.031,0.044,0.033));
#718=CARTESIAN_POINT('',(0.0175,0.044,0.033));
#719=CARTESIAN_POINT('',(-0.031,0.04,0.033));
#720=CARTESIAN_POINT('',(-0.031,0.04,0.033));
#721=CARTESIAN_POINT('',(0.,6.93889390390723E-18,0.033));
#722=CARTESIAN_POINT('',(-0.0301,0.0391,0.033));
#723=CARTESIAN_POINT('',(-0.02835,0.0391,0.033));
#724=CARTESIAN_POINT('',(-0.0301,-0.0391,0.033));
#725=CARTESIAN_POINT('',(-0.02835,-0.0391,0.033));
#726=CARTESIAN_POINT('',(0.0301,-0.0391,0.033));
#727=CARTESIAN_POINT('',(0.03185,-0.0391,0.033));
#728=CARTESIAN_POINT('',(0.0301,0.0391,0.033));
#729=CARTESIAN_POINT('',(0.03185,0.0391,0.033));
#730=CARTESIAN_POINT('',(0.0301,0.0391,0.029998));
#731=CARTESIAN_POINT('',(0.0301,-0.0391,0.029998));
#732=CARTESIAN_POINT('',(-0.0301,-0.0391,0.029998));
#733=CARTESIAN_POINT('',(-0.0301,0.0391,0.029998));
#734=MECHANICAL_DESIGN_GEOMETRIC_PRESENTATION_REPRESENTATION('',(#427),
#735);
#735=(
GEOMETRIC_REPRESENTATION_CONTEXT(3)
GLOBAL_UNCERTAINTY_ASSIGNED_CONTEXT((#736))
GLOBAL_UNIT_ASSIGNED_CONTEXT((#739,#738,#737))
REPRESENTATION_CONTEXT('Cover','TOP_LEVEL_ASSEMBLY_PART')
);
#736=UNCERTAINTY_MEASURE_WITH_UNIT(LENGTH_MEASURE(1.E-8),#739,
'DISTANCE_ACCURACY_VALUE','Maximum Tolerance applied to model');
#737=(
NAMED_UNIT(*)
SI_UNIT($,.STERADIAN.)
SOLID_ANGLE_UNIT()
);
#738=(
NAMED_UNIT(*)
PLANE_ANGLE_UNIT()
SI_UNIT($,.RADIAN.)
);
#739=(
LENGTH_UNIT()
NAMED_UNIT(*)
SI_UNIT($,.METRE.)
);
#740=PRODUCT_DEFINITION_SHAPE('','',#741);
#741=PRODUCT_DEFINITION('','',#743,#742);
#742=PRODUCT_DEFINITION_CONTEXT('',#749,'design');
#743=PRODUCT_DEFINITION_FORMATION_WITH_SPECIFIED_SOURCE('','',#745,
 .NOT_KNOWN.);
#744=PRODUCT_RELATED_PRODUCT_CATEGORY('','',(#745));
#745=PRODUCT('Cover','Cover','Cover',(#747));
#746=PRODUCT_CATEGORY('','');
#747=PRODUCT_CONTEXT('',#749,'mechanical');
#748=APPLICATION_PROTOCOL_DEFINITION('international standard',
'ap242_managed_model_based_3d_engineering',2020,#749);
#749=APPLICATION_CONTEXT('managed model based 3d engineering');
ENDSEC;
END-ISO-10303-21;
